<?xml version="1.0" encoding="UTF-8"?><svg id="Layer_1" xmlns="http://www.w3.org/2000/svg" viewBox="0 0 89.96 55.19"><defs><style>.cls-1{fill:#ef8030;}.cls-2{fill:#da6b26;}</style></defs><path class="cls-2" d="M45.07,55.15c-14.29,0-28.59-.01-42.88.02C.97,55.17,0,54.37,0,53.02c.03-9.46.01-18.92.03-28.38,0-1.64.64-2.2,2.29-2.2,8.09,0,16.18,0,24.27,0,1.42,0,1.97-.57,1.97-2.02,0-6.1,0-12.2,0-18.3C28.56.71,29.28,0,30.71,0c9.5,0,19,0,28.5,0,1.56,0,2.22.66,2.22,2.23,0,7.72,0,15.43,0,23.15,0,1.43.45,1.88,1.9,1.88,8.19,0,16.39,0,24.58,0,1.36,0,2.03.65,2.03,2,0,7.88-.02,15.77.02,23.65,0,1.51-.59,2.29-2.32,2.29-14.19-.03-28.38-.02-42.57-.02v-.03ZM33.17,33.29c0,5.25,0,10.49,0,15.74,0,.97.52,1.5,1.49,1.49.53,0,1.07-.06,1.6-.14.7-.11,1.14-.53,1.37-1.21.46-1.37.9-2.75,1.41-4.1.79-2.08,1.84-4.01,3.73-5.29.81-.55,1.37-1.19,1.66-2.14.23-.74.57-1.47,1.08-2.08.92-1.12,1.36-2.44,1.74-3.8.28-1,.64-1.97,1.25-2.82.62-.87,1.33-.93,2.06-.16.18.19.35.41.48.64.64,1.14,1.51,2.08,2.48,2.92.74.64,1.44,1.36,2.41,1.7.77.27.87.22.87-.57,0-3.9,0-7.8,0-11.7,0-.87,0-1.74,0-2.61-.01-1.07-.53-1.56-1.59-1.49-.57.04-1.09.25-1.58.53-.68.39-1.4.6-2.16.7-.72.09-1.2-.38-.97-1.01.23-.65.61-1.21,1.25-1.56,1.06-.58,2.23-.87,3.36-1.27,1.08-.39,1.68-1.13,1.69-2.2.02-1.95.02-3.9,0-5.85-.01-1.05-.52-1.72-1.46-2.08-.34-.13-.7-.05-1.05-.08-2.38-.25-4.76-.08-7.14-.1-.89,0-1.17.37-1.17,1.25,0,.7.08,1.4.1,2.1.06,1.66.05,3.32,0,4.98-.02.9-.14,1.81-.26,2.71-.04.29-.11.65-.47.74-.4.1-.69-.15-.89-.45-.2-.31-.34-.66-.49-1-.63-1.4-.48-2.92-.58-4.39-.12-1.71-.39-3.39-.66-5.08-.09-.59-.4-.89-1.05-.88-2.22.03-4.44.01-6.66.01-1.3,0-1.86.55-1.87,1.84,0,1.45.04,2.91-.02,4.35-.05,1.13.43,1.8,1.41,2.31,1.06.54,2.12,1.12,3.07,1.87,1.31,1.04,2.22,2.44,3.42,3.58.46.44.66,1.08.71,1.75.1,1.31-.14,2.48-1.11,3.48-.64.67-1.12,1.48-1.83,2.1-.24.21-.52.35-.85.17-.3-.17-.34-.45-.33-.75,0-.14.04-.28.06-.43.11-.8.69-1.4.96-2.14.25-.71.35-1.39-.16-1.99-.89-1.06-1.77-2.14-2.8-3.07-.45-.4-.92-.76-1.52-.93-.82-.22-1.03-.09-1.03.74,0,5.23,0,10.45,0,15.68ZM61.67,41.12c0,2.51,0,5.02,0,7.53,0,1.14.65,1.75,1.77,1.78,1.59.04,3.18-.07,4.78.08.59.06,1.23-.05,1.85-.1.35-.03.59-.27.74-.59.89-1.91,2.23-3.43,4.08-4.45.9-.5,1.39-1.27,1.67-2.21.3-1.02.68-2,1.27-2.89.85-1.28,1.75-2.58,3.22-3.16,1.36-.53,2.25-1.51,3.13-2.55.45-.53.53-1.16.26-1.8-.25-.63-.73-.82-1.4-.91-.68-.09-1.31.04-1.97.04-2.24,0-4.48.02-6.72-.02-.58,0-.93.15-1.15.7-.45,1.14-1.08,2.18-1.72,3.22-.48.78-1.18,1.46-1.29,2.44-.06.49-.11.98-.19,1.47-.12.74-.31,1.46-.91,1.99-.28.25-.6.37-.97.21-.38-.16-.46-.48-.49-.86-.1-1.06.22-2.05.57-3.02.66-1.83,1.38-3.63,2.05-5.45.23-.62.18-.68-.47-.68-2.07,0-4.15.04-6.22-.02-1.21-.03-1.92.77-1.9,1.92.03,2.45,0,4.89,0,7.34ZM4.79,45.55c0,1.08,0,2.16,0,3.23,0,.51.18.91.55,1.26.47.44,1.05.51,1.62.48,1.61-.11,3.23-.17,4.84-.08,1.18.07,1.83-.22,2.33-1.41,1.05-2.5,3.02-4.2,5.47-5.33.98-.45,1.7-1.12,2.14-2.13.5-1.14,1.09-2.22,2.02-3.1.94-.89,2.01-1.59,3.16-2.17.85-.42,1.38-1.07,1.39-2.03.03-1.95.02-3.9,0-5.85,0-.77-.31-1.15-1.07-1.29-1.46-.27-2.93-.13-4.4-.08-.57.02-1.09.34-1.4.91-.73,1.32-1.61,2.57-1.96,4.07-.4,1.77-1.51,2.82-3.2,3.37-1.29.42-2.39,1.11-3.41,2.06-1.45,1.36-3.18,2.36-5.15,2.85-.78.19-1.57.33-2.28.76-.49.3-.66.7-.66,1.24,0,1.08,0,2.16,0,3.23ZM56.92,40.53c-.03-1.62-.63-2.58-2.01-3.4-1.25-.75-2.56-1.43-3.73-2.33-1.04-.8-1.84-.56-2.48.58-.61,1.09-1.02,2.26-1.44,3.42-.46,1.26-.96,2.46-2.16,3.24-.51.34-.96.77-1.36,1.26-1.57,1.96-2.53,4.25-3.51,6.53-.2.46-.05.59.41.59,2.11-.01,4.23,0,6.34,0,.95,0,1.91-.04,2.86.03,1.15.09,1.36,0,1.76-1.06.05-.14.12-.26.19-.39.99-2.05,2.46-3.71,4.18-5.16.49-.41.75-.94.83-1.55.08-.59-.07-1.2.11-1.76ZM4.79,32.45c0,1.16,0,2.32,0,3.48,0,1.15.72,1.69,1.8,1.37,1.5-.45,2.94-1.05,4.16-2.04,1.38-1.11,2.9-1.9,4.59-2.37.79-.22,1.27-.75,1.6-1.45.16-.34.31-.68.45-1.02.37-.9.76-1.79,1.25-2.63.12-.21.16-.45,0-.65-.15-.2-.36-.11-.57-.07-.22.05-.45.05-.68.05-3.55,0-7.09,0-10.64,0-1.24,0-1.95.71-1.96,1.95,0,1.12,0,2.24,0,3.36ZM85.2,43.94c0-1.62,0-3.24,0-4.85,0-.68-.08-.75-.71-.48-.59.25-1.18.52-1.73.85-1.45.86-2.66,1.9-3.17,3.64-.37,1.26-1.13,2.36-2.17,3.2-.75.61-1.61,1.09-2.41,1.64-.58.4-.99.93-1.19,1.61-.2.68-.06.88.64.88,3.01,0,6.02,0,9.02,0,1.09,0,1.72-.64,1.72-1.74,0-1.58,0-3.15,0-4.73ZM22.2,50.42c1.45,0,2.9,0,4.36,0,1.31,0,1.77-.47,1.77-1.8,0-2.97,0-5.93,0-8.9,0-.98-.05-1.01-.92-.51-.02.01-.03.03-.05.04-1.22.69-2.01,1.78-2.68,2.94-.89,1.52-1.9,2.85-3.56,3.66-1.76.86-3.27,2.08-4.1,3.97-.23.53-.08.61.4.61,1.6,0,3.19,0,4.79,0ZM55.41,50.42c.28,0,.51-.02.74,0,.39.03.6-.19.64-.52.08-.67.29-1.34.04-2.02-.07-.18.09-.48-.18-.53-.26-.05-.47.14-.63.34-.4.52-.81,1.04-1.18,1.59-.21.31-.63.67-.43,1.02.18.32.69.06.99.13Z"/><path class="cls-1" d="M33.17,33.29c0-5.23,0-10.45,0-15.68,0-.82.2-.96,1.03-.74.6.16,1.08.53,1.52.93,1.04.93,1.91,2,2.8,3.07.5.6.41,1.29.16,1.99-.26.74-.85,1.34-.96,2.14-.02.14-.06.28-.06.43-.02.3.02.58.33.75.33.18.61.04.85-.17.7-.62,1.19-1.44,1.83-2.1.96-1,1.2-2.17,1.11-3.48-.05-.67-.25-1.3-.71-1.75-1.2-1.14-2.11-2.55-3.42-3.58-.95-.75-2-1.32-3.07-1.87-.98-.5-1.46-1.18-1.41-2.31.06-1.45.01-2.9.02-4.35,0-1.29.57-1.84,1.87-1.84,2.22,0,4.44.02,6.66-.01.66,0,.96.3,1.05.88.27,1.69.53,3.37.66,5.08.11,1.47-.04,2.99.58,4.39.15.34.29.69.49,1,.2.3.49.54.89.45.36-.09.43-.45.47-.74.12-.9.24-1.8.26-2.71.04-1.66.05-3.32,0-4.98-.03-.7-.11-1.4-.1-2.1,0-.88.28-1.26,1.17-1.25,2.38.02,4.76-.16,7.14.1.35.04.7-.05,1.05.08.94.36,1.45,1.04,1.46,2.08.02,1.95.02,3.9,0,5.85,0,1.07-.61,1.82-1.69,2.2-1.13.4-2.3.69-3.36,1.27-.64.35-1.02.92-1.25,1.56-.23.63.25,1.11.97,1.01.76-.1,1.49-.31,2.16-.7.48-.28,1.01-.49,1.58-.53,1.06-.07,1.58.42,1.59,1.49.01.87,0,1.74,0,2.61,0,3.9,0,7.8,0,11.7,0,.8-.11.84-.87.57-.97-.34-1.67-1.06-2.41-1.7-.97-.84-1.85-1.78-2.48-2.92-.13-.23-.3-.45-.48-.64-.72-.77-1.43-.71-2.06.16-.61.85-.97,1.82-1.25,2.82-.39,1.36-.83,2.69-1.74,3.8-.51.62-.85,1.34-1.08,2.08-.29.95-.85,1.59-1.66,2.14-1.89,1.28-2.95,3.21-3.73,5.29-.51,1.35-.95,2.73-1.41,4.1-.23.67-.67,1.1-1.37,1.21-.53.08-1.07.13-1.6.14-.97.01-1.49-.53-1.49-1.49,0-5.25,0-10.49,0-15.74Z"/><path class="cls-1" d="M61.67,41.12c0-2.45.02-4.89,0-7.34-.01-1.15.69-1.96,1.9-1.92,2.07.06,4.15.01,6.22.02.65,0,.7.05.47.68-.68,1.82-1.4,3.63-2.05,5.45-.35.97-.66,1.96-.57,3.02.03.37.11.69.49.86.37.16.69.04.97-.21.6-.53.79-1.24.91-1.99.08-.49.13-.98.19-1.47.11-.98.81-1.66,1.29-2.44.64-1.04,1.27-2.08,1.72-3.22.22-.55.57-.71,1.15-.7,2.24.03,4.48,0,6.72.02.65,0,1.29-.13,1.97-.04.67.09,1.15.28,1.4.91.26.65.19,1.27-.26,1.8-.88,1.04-1.77,2.01-3.13,2.55-1.47.57-2.37,1.87-3.22,3.16-.59.89-.96,1.87-1.27,2.89-.28.94-.77,1.71-1.67,2.21-1.84,1.03-3.19,2.54-4.08,4.45-.15.33-.39.56-.74.59-.62.06-1.26.16-1.85.1-1.6-.15-3.19-.04-4.78-.08-1.13-.03-1.77-.64-1.77-1.78,0-2.51,0-5.02,0-7.53Z"/><path class="cls-1" d="M4.79,45.55c0-1.08,0-2.16,0-3.23,0-.53.18-.94.66-1.24.71-.44,1.5-.57,2.28-.76,1.97-.49,3.7-1.48,5.15-2.85,1.02-.96,2.12-1.64,3.41-2.06,1.69-.55,2.79-1.61,3.2-3.37.34-1.5,1.23-2.75,1.96-4.07.31-.57.84-.89,1.4-.91,1.46-.05,2.94-.19,4.4.08.76.14,1.06.53,1.07,1.29.01,1.95.02,3.9,0,5.85-.01.96-.54,1.61-1.39,2.03-1.15.57-2.21,1.28-3.16,2.17-.93.87-1.52,1.96-2.02,3.1-.44,1.01-1.16,1.68-2.14,2.13-2.45,1.13-4.42,2.83-5.47,5.33-.5,1.19-1.15,1.48-2.33,1.41-1.61-.1-3.22-.03-4.84.08-.56.04-1.15-.04-1.62-.48-.37-.35-.56-.75-.55-1.26,0-1.08,0-2.16,0-3.23Z"/><path class="cls-1" d="M56.92,40.53c-.19.56-.04,1.17-.11,1.76-.08.61-.34,1.14-.83,1.55-1.72,1.45-3.19,3.11-4.18,5.16-.06.13-.13.26-.19.39-.4,1.06-.61,1.15-1.76,1.06-.95-.07-1.9-.03-2.86-.03-2.11,0-4.23,0-6.34,0-.46,0-.61-.13-.41-.59.98-2.28,1.94-4.57,3.51-6.53.39-.49.84-.93,1.36-1.26,1.19-.78,1.7-1.98,2.16-3.24.42-1.16.83-2.33,1.44-3.42.64-1.14,1.44-1.38,2.48-.58,1.17.9,2.47,1.57,3.73,2.33,1.38.83,1.98,1.78,2.01,3.4Z"/><path class="cls-1" d="M4.79,32.45c0-1.12,0-2.24,0-3.36,0-1.24.72-1.95,1.96-1.95,3.55,0,7.09,0,10.64,0,.23,0,.46,0,.68-.05.21-.04.42-.13.57.07.16.2.12.44,0,.65-.48.84-.88,1.73-1.25,2.63-.14.34-.29.69-.45,1.02-.33.7-.81,1.23-1.6,1.45-1.69.47-3.21,1.27-4.59,2.37-1.22.98-2.66,1.59-4.16,2.04-1.08.32-1.79-.22-1.8-1.37,0-1.16,0-2.32,0-3.48Z"/><path class="cls-1" d="M85.2,43.94c0,1.58,0,3.15,0,4.73,0,1.1-.63,1.74-1.72,1.74-3.01,0-6.02,0-9.02,0-.7,0-.84-.2-.64-.88.2-.68.61-1.22,1.19-1.61.8-.55,1.66-1.03,2.41-1.64,1.04-.83,1.8-1.93,2.17-3.2.51-1.74,1.72-2.78,3.17-3.64.55-.33,1.14-.6,1.73-.85.64-.26.71-.2.71.48,0,1.62,0,3.24,0,4.85Z"/><path class="cls-1" d="M22.2,50.42c-1.6,0-3.19,0-4.79,0-.48,0-.63-.07-.4-.61.83-1.89,2.33-3.11,4.1-3.97,1.66-.81,2.68-2.14,3.56-3.66.68-1.17,1.47-2.26,2.68-2.94.02-.01.03-.03.05-.04.87-.5.92-.47.92.51,0,2.97,0,5.93,0,8.9,0,1.34-.46,1.8-1.77,1.8-1.45,0-2.9,0-4.36,0Z"/><path class="cls-1" d="M55.41,50.42c-.3-.06-.81.19-.99-.13-.2-.35.22-.71.43-1.02.37-.55.78-1.07,1.18-1.59.15-.2.37-.39.63-.34.27.06.11.35.18.53.25.68.04,1.35-.04,2.02-.04.34-.25.56-.64.52-.23-.02-.46,0-.74,0Z"/></svg>