<svg width="190" height="190" viewBox="0 0 190 190" fill="none" xmlns="http://www.w3.org/2000/svg">
<circle cx="95" cy="95" r="95" fill="white"/>
<path d="M112.389 156.62C112.389 161.227 110.559 165.645 107.301 168.903C104.043 172.161 99.6249 173.991 95.0179 173.991C90.4108 173.991 85.9924 172.161 82.7347 168.903C79.477 165.645 77.6469 161.227 77.6469 156.62C77.6469 152.013 79.477 147.594 82.7347 144.337C85.9924 141.079 90.4108 139.249 95.0179 139.249C99.6249 139.249 104.043 141.079 107.301 144.337C110.559 147.594 112.389 152.013 112.389 156.62Z" fill="black"/>
<path fill-rule="evenodd" clip-rule="evenodd" d="M94.7659 57.1879C88.9466 57.1879 83.9525 58.925 80.4349 61.4091C77.0475 63.8063 75.3712 66.5943 74.8848 69.0002C74.1661 72.2162 72.2156 75.0223 69.4517 76.8166C66.6879 78.611 63.3308 79.2506 60.1008 78.5982C56.8707 77.9458 54.025 76.0535 52.1742 73.3271C50.3234 70.6007 49.6149 67.2575 50.2006 64.0148C52.1722 54.2349 58.2347 46.2529 65.9127 40.8245C73.9034 35.1789 84.0306 32 94.7659 32C116.975 32 140 46.8522 140 70.7026C140 84.5125 131.792 95.6821 121.161 102.196C118.312 103.94 114.886 104.48 111.638 103.699C108.39 102.917 105.586 100.877 103.842 98.0272C102.098 95.1777 101.558 91.7522 102.34 88.5043C103.122 85.2564 105.162 82.4521 108.011 80.7083C112.962 77.677 114.812 73.812 114.812 70.7026C114.812 65.7171 108.602 57.1879 94.7659 57.1879Z" fill="black"/>
<path fill-rule="evenodd" clip-rule="evenodd" d="M94.766 90.7576C101.714 90.7576 107.36 96.3858 107.36 103.352V116.397C107.36 119.737 106.033 122.941 103.671 125.302C101.309 127.664 98.1061 128.991 94.766 128.991C91.4258 128.991 88.2225 127.664 85.8607 125.302C83.4989 122.941 82.172 119.737 82.172 116.397V103.352C82.172 96.4031 87.8089 90.7576 94.766 90.7576Z" fill="black"/>
<path fill-rule="evenodd" clip-rule="evenodd" d="M125.417 84.9903C126.268 86.41 126.831 87.9836 127.073 89.6209C127.315 91.2582 127.232 92.9273 126.829 94.5325C126.425 96.1378 125.71 97.6478 124.722 98.9762C123.735 100.305 122.495 101.425 121.075 102.274L101.237 114.147C98.3713 115.864 94.9413 116.371 91.7015 115.558C88.4618 114.746 85.6776 112.679 83.9614 109.813C82.2453 106.948 81.7378 103.518 82.5506 100.278C83.3634 97.0383 85.4299 94.2541 88.2955 92.538L108.142 80.6562C109.561 79.8068 111.134 79.2453 112.771 79.0039C114.407 78.7625 116.075 78.8458 117.679 79.249C119.283 79.6523 120.792 80.3677 122.12 81.3542C123.448 82.3408 124.568 83.5706 125.417 84.9903Z" fill="black"/>
</svg>
